Coordinates
version=1
nRows=26
nColumns=24
inDegrees=yes

Units are S.I. units (second, meters, Newtons, ...)
Angles are in degrees.

endheader
time	pelvis_tilt	pelvis_list	pelvis_rotation	pelvis_tx	pelvis_ty	pelvis_tz	hip_flexion_r	hip_adduction_r	hip_rotation_r	knee_angle_r	ankle_angle_r	subtalar_angle_r	mtp_angle_r	hip_flexion_l	hip_adduction_l	hip_rotation_l	knee_angle_l	ankle_angle_l	subtalar_angle_l	mtp_angle_l	lumbar_extension	lumbar_bending	lumbar_rotation
      5.13000000	     -1.37819542	     -5.00608310	     -2.54259387	     -1.07604934	      0.94954591	      0.19586748	     -1.36959152	      9.35654423	      1.66240630	    -10.95969307	     15.54490577	     -1.94360538	      0.00000000	     31.96885011	     -7.28175283	     -8.01210371	    -49.38346525	      6.73365168	    -10.17822063	      0.00000000	    -22.30939771	      1.99789586	      5.85250977
      5.14000000	     -1.53341045	     -5.11387869	     -2.91315950	     -1.06463105	      0.94903641	      0.19585948	     -2.46349221	      9.37119627	      2.01678011	    -10.06836883	     15.40738977	     -1.79899840	      0.00000000	     32.24974640	     -7.47418623	     -8.43830048	    -45.41288128	      7.33461121	     -9.20075900	      0.00000000	    -22.36896180	      1.94875694	      6.40397014
      5.15000000	     -1.73721346	     -5.28669009	     -3.26414144	     -1.05300853	      0.94812567	      0.19574351	     -3.52632494	      9.43274299	      2.38003578	     -9.18109967	     15.36695291	     -1.55522600	      0.00000000	     32.42911422	     -7.67641015	     -8.70907432	    -41.20333699	      7.90146507	     -7.95756585	      0.00000000	    -22.34287941	      1.99971742	      6.89882175
      5.16000000	     -1.81292135	     -5.47827838	     -3.64034991	     -1.04120006	      0.94718503	      0.19564106	     -4.75727675	      9.48590826	      2.80866060	     -8.26480817	     15.24747466	     -1.35987442	      0.00000000	     32.29557137	     -7.86619874	     -8.84732395	    -36.76637460	      8.24969166	     -6.57080755	      0.00000000	    -22.45968651	      2.03751262	      7.48708750
      5.17000000	     -1.83481977	     -5.73183363	     -4.00789465	     -1.02914485	      0.94600500	      0.19545584	     -6.06877678	      9.57542209	      3.24130569	     -7.35340706	     15.15761413	     -1.12993254	      0.00000000	     31.96752570	     -8.06507555	     -8.74086011	    -32.20523320	      8.48234418	     -5.18925394	      0.00000000	    -22.61338655	      2.15023359	      8.06127410
      5.18000000	     -1.77862449	     -6.02819278	     -4.37929389	     -1.01684686	      0.94464777	      0.19521544	     -7.47893709	      9.67739758	      3.67710367	     -6.45982162	     15.06968224	     -0.88520896	      0.00000000	     31.44400611	     -8.27278126	     -8.34989717	    -27.61723033	      8.53482170	     -4.02402335	      0.00000000	    -22.83184161	      2.29945296	      8.66392532
      5.19000000	     -1.67586569	     -6.37281811	     -4.75660757	     -1.00432737	      0.94307536	      0.19491488	     -8.93918158	      9.79775751	      4.11591938	     -5.61403052	     15.00107642	     -0.60113657	      0.00000000	     30.79736908	     -8.51318105	     -7.62081014	    -23.12254576	      8.40846018	     -3.31463525	      0.00000000	    -23.08226762	      2.49683415	      9.28821082
      5.20000000	     -1.57032442	     -6.74974257	     -5.12558250	     -0.99163121	      0.94125397	      0.19459484	    -10.37513299	      9.93209155	      4.53559641	     -4.85989974	     14.95763716	     -0.29560361	      0.00000000	     30.12951587	     -8.80098273	     -6.54412403	    -18.87641779	      8.11187769	     -3.15963564	      0.00000000	    -23.31881664	      2.71861188	      9.91157548
      5.21000000	     -1.41932128	     -7.16121245	     -5.51972241	     -0.97880768	      0.93929276	      0.19428968	    -11.81389942	     10.07070277	      4.97769753	     -4.23401992	     14.95217050	      0.06127341	      0.00000000	     29.42627212	     -9.18110293	     -5.28265275	    -15.01820228	      7.74768150	     -3.57663815	      0.00000000	    -23.60970461	      2.95220325	     10.57465393
      5.22000000	     -1.21955097	     -7.57022521	     -5.90734754	     -0.96586173	      0.93725076	      0.19398886	    -13.23622272	     10.18399237	      5.38912635	     -3.76084997	     14.98752586	      0.45343568	      0.00000000	     28.71785075	     -9.61020829	     -3.98214767	    -11.66624773	      7.37545092	     -4.46959027	      0.00000000	    -23.95400497	      3.15833019	     11.23036279
      5.23000000	     -1.00920813	     -7.94780622	     -6.27740874	     -0.95280336	      0.93513742	      0.19363632	    -14.57623869	     10.24835387	      5.72876855	     -3.47115791	     15.07399889	      0.90039799	      0.00000000	     28.08543163	    -10.04354396	     -2.83540678	     -8.94072840	      7.08516844	     -5.59715910	      0.00000000	    -24.30426325	      3.31862856	     11.85648535
      5.24000000	     -0.79583087	     -8.25335313	     -6.60011141	     -0.93962926	      0.93300095	      0.19315370	    -15.80445361	     10.23034178	      5.95594361	     -3.38347206	     15.22557753	      1.42337301	      0.00000000	     27.57256278	    -10.40287908	     -1.98029025	     -6.93082940	      6.95967632	     -6.65134496	      0.00000000	    -24.64600555	      3.40476527	     12.40718173
      5.25000000	     -0.60853136	     -8.45934368	     -6.87841425	     -0.92632900	      0.93086768	      0.19248756	    -16.87179575	     10.10701969	      6.05167979	     -3.51750260	     15.43443618	      2.02722764	      0.00000000	     27.22705422	    -10.63430984	     -1.51576492	     -5.68886945	      7.05762620	     -7.39837268	      0.00000000	    -24.94469129	      3.39699336	     12.87353274
      5.26000000	     -0.50627783	     -8.61967379	     -7.11169689	     -0.91299651	      0.92868552	      0.19160131	    -17.71030531	      9.94789919	      6.08964321	     -3.88061651	     15.60489629	      2.61115781	      0.00000000	     27.14447752	    -10.77674436	     -1.41544617	     -5.26299308	      7.40061350	     -7.71696368	      0.00000000	    -25.15842748	      3.38461702	     13.26231052
      5.27000000	     -0.31232563	     -8.50355759	     -7.27716682	     -0.89925848	      0.92672886	      0.19048230	    -18.52728446	      9.48539370	      5.89743136	     -4.40839579	     15.94589992	      3.42843638	      0.00000000	     27.03078425	    -10.57671404	     -1.67447322	     -5.46966452	      7.75643089	     -7.81283902	      0.00000000	    -25.38165404	      3.06850837	     13.49131022
      5.28000000	     -0.15178032	     -8.29735019	     -7.32440678	     -0.88535738	      0.92480637	      0.18910656	    -19.20110756	      8.96618879	      5.58273708	     -5.08977812	     16.15014112	      4.16088497	      0.00000000	     27.10585466	    -10.21423761	     -2.08028554	     -6.35792176	      8.09210566	     -7.77607989	      0.00000000	    -25.54679331	      2.70389764	     13.55045242
      5.29000000	      0.01257039	     -8.00692250	     -7.34269110	     -0.87137185	      0.92303570	      0.18758446	    -19.75368471	      8.36255172	      5.21617277	     -5.97334891	     16.32682527	      4.93195842	      0.00000000	     27.27125741	     -9.74449135	     -2.51755929	     -7.78024025	      8.21017498	     -7.91245277	      0.00000000	    -25.72081609	      2.25689441	     13.55204069
      5.30000000	      0.15542881	     -7.59189362	     -7.26431409	     -0.85720106	      0.92140232	      0.18587123	    -20.19091581	      7.66284182	      4.78137226	     -6.98767547	     16.37340770	      5.66821795	      0.00000000	     27.54834783	     -9.10207785	     -2.87826838	     -9.59544028	      7.90848071	     -8.46462713	      0.00000000	    -25.84112214	      1.70723299	     13.39588756
      5.31000000	      0.29135212	     -7.08341382	     -7.09217552	     -0.84291421	      0.91996475	      0.18402802	    -20.52905392	      6.90907896	      4.30362935	     -8.13606110	     16.23150288	      6.29054976	      0.00000000	     27.90137370	     -8.32478123	     -3.01879025	    -11.67470139	      7.13709446	     -9.50200722	      0.00000000	    -25.94727775	      1.07818242	     13.09894476
      5.32000000	      0.44653033	     -6.50190142	     -6.82133388	     -0.82851165	      0.91880224	      0.18206329	    -20.79931633	      6.12265500	      3.77974888	     -9.42018625	     15.85962111	      6.81699223	      0.00000000	     28.28142330	     -7.42967336	     -2.94317653	    -13.90935561	      5.97305820	    -10.87002156	      0.00000000	    -26.07570123	      0.39302386	     12.66964064
      5.33000000	      0.64351830	     -5.86532659	     -6.46051010	     -0.81397855	      0.91795802	      0.18001777	    -21.01909938	      5.32003904	      3.19329999	    -10.86496831	     15.23455323	      7.27401956	      0.00000000	     28.62665980	     -6.43647668	     -2.67955372	    -16.19355430	      4.57392607	    -12.34796372	      0.00000000	    -26.25567982	     -0.34408485	     12.13020515
      5.34000000	      0.92509063	     -5.17662001	     -6.03220184	     -0.79924562	      0.91751312	      0.17793137	    -21.22291375	      4.48719904	      2.48466312	    -12.49640863	     14.31122308	      7.72626849	      0.00000000	     28.82856146	     -5.35543011	     -2.28711086	    -18.41812289	      3.14386422	    -13.66469431	      0.00000000	    -26.52477311	     -1.13716338	     11.50635208
      5.35000000	      1.21607496	     -4.51082243	     -5.58789068	     -0.78438586	      0.91732522	      0.17584490	    -21.31717927	      3.69866102	      1.84754347	    -14.35125183	     13.06182336	      8.07044820	      0.00000000	     28.93880901	     -4.27878550	     -1.81991840	    -20.53650028	      1.85511548	    -14.77691649	      0.00000000	    -26.80830386	     -1.89535421	     10.87629551
      5.36000000	      1.56406237	     -3.83916722	     -5.16173109	     -0.76933334	      0.91747517	      0.17378667	    -21.30567872	      2.89205283	      1.12479669	    -16.49573599	     11.45533802	      8.41575894	      0.00000000	     28.83176587	     -3.18915788	     -1.33980755	    -22.44359159	      0.89876388	    -15.57332391	      0.00000000	    -27.13709582	     -2.66427169	     10.24273631
      5.37000000	      1.92553252	     -3.18982973	     -4.78568365	     -0.75416969	      0.91789756	      0.17178393	    -21.11651802	      2.08560409	      0.42491028	    -18.95166381	      9.45461758	      8.72951931	      0.00000000	     28.53917397	     -2.13046650	     -0.91536959	    -24.11520979	      0.33926269	    -16.14820958	      0.00000000	    -27.46251905	     -3.41170710	      9.67410980
      5.38000000	      2.20984747	     -2.56456849	     -4.49686535	     -0.73899213	      0.91846699	      0.16992010	    -20.61037467	      1.28353636	     -0.14785069	    -21.75564488	      7.04356235	      8.92202406	      0.00000000	     28.15599714	     -1.13335115	     -0.58830056	    -25.54941227	      0.22970568	    -16.54561952	      0.00000000	    -27.67633726	     -4.14681812	      9.17538065
